<svg width="14" height="26" viewBox="0 0 14 26" fill="none" xmlns="http://www.w3.org/2000/svg">
<path d="M11.642 7.15059C12.0838 7.15059 12.442 6.79241 12.442 6.35059C12.442 5.90876 12.0838 5.55059 11.642 5.55059V7.15059ZM2.55199 19.3506C2.11017 19.3506 1.75199 19.7088 1.75199 20.1506C1.75199 20.5924 2.11017 20.9506 2.55199 20.9506V19.3506ZM11.642 5.55059H3.87417V7.15059H11.642V5.55059ZM3.87417 5.55059C2.7445 5.55059 1.8844 6.2071 1.32918 7.02703C0.777521 7.8417 0.468851 8.88713 0.410456 9.90475C0.352283 10.9185 0.537778 11.9997 1.08505 12.8563C1.65656 13.7508 2.59726 14.3506 3.87417 14.3506V12.7506C3.16782 12.7506 2.72435 12.4503 2.43335 11.9949C2.1181 11.5014 1.96271 10.7826 2.00783 9.99642C2.05272 9.21405 2.29151 8.45947 2.65401 7.92415C3.01296 7.39407 3.43373 7.15059 3.87417 7.15059V5.55059ZM9.82402 14.3506C10.5162 14.3506 11.027 14.6407 11.3869 15.0852C11.7611 15.5474 11.9822 16.1951 11.9992 16.8706C12.0161 17.5466 11.8273 18.1778 11.4748 18.6223C11.1401 19.0444 10.6196 19.3506 9.82402 19.3506V20.9506C11.0944 20.9506 12.0819 20.4318 12.7285 19.6164C13.3573 18.8234 13.623 17.8046 13.5987 16.8306C13.5743 15.8561 13.2582 14.8538 12.6305 14.0784C11.9884 13.2855 11.0324 12.7506 9.82402 12.7506V14.3506ZM9.82402 19.3506H2.55199V20.9506H9.82402V19.3506ZM3.87417 14.3506H6.8491V12.7506H3.87417V14.3506ZM6.8491 14.3506H9.82402V12.7506H6.8491V14.3506Z" fill="#666666"/>
<path d="M8.61445 1.75049C8.61445 1.30866 8.25628 0.950488 7.81445 0.950488C7.37263 0.950488 7.01445 1.30866 7.01445 1.75049L8.61445 1.75049ZM7.01445 24.9505C7.01445 25.3923 7.37262 25.7505 7.81445 25.7505C8.25628 25.7505 8.61445 25.3923 8.61445 24.9505L7.01445 24.9505ZM7.01445 1.75049L7.01445 24.9505L8.61445 24.9505L8.61445 1.75049L7.01445 1.75049Z" fill="#666666"/>
</svg>
